<mxfile host="app.diagrams.net" modified="2024-05-06T03:02:25.817Z" agent="Mozilla/5.0 (Windows NT 10.0; Win64; x64) AppleWebKit/537.36 (KHTML, like Gecko) Chrome/124.0.0.0 Safari/537.36" version="24.3.1" etag="M5WvHm1_dH5ID9s7Y64n" type="github">
  <diagram name="Page-1" id="d0Tqp2KHN8r35ThtvwZ_">
    <mxGraphModel>
      <root>
        <mxCell id="0" />
        <mxCell id="1" parent="0" />
      </root>
    </mxGraphModel>
  </diagram>
</mxfile>
